<?xml version="1.0" encoding="utf-8"?>
<!-- Generator: Adobe Illustrator 24.0.3, SVG Export Plug-In . SVG Version: 6.00 Build 0)  -->
<svg version="1.1" id="레이어_1" xmlns="http://www.w3.org/2000/svg" xmlns:xlink="http://www.w3.org/1999/xlink" x="0px"
	 y="0px" viewBox="0 0 207 46" style="enable-background:new 0 0 207 46;" xml:space="preserve">
<style type="text/css">
	.st0{fill:none;}
	.st1{fill:#F7931E;}
	.st2{fill:#FFFFFF;}
	.st3{fill:#E6E6E6;}
	.st4{fill:#B3B3B3;}
	.st5{fill:none;stroke:#CCCCCC;stroke-miterlimit:10;}
	.st6{fill:#CCCCCC;}
	.st7{fill:#F7931E;stroke:#CCCCCC;stroke-miterlimit:10;}
	.st8{fill:none;stroke:#E6E6E6;stroke-miterlimit:10;}
	.st9{fill:none;stroke:#808080;stroke-width:2;stroke-miterlimit:10;}
	.st10{fill:#F7931E;stroke:#006837;stroke-width:4;stroke-miterlimit:10;}
	.st11{fill:#F7931E;stroke:#29ABE2;stroke-width:3;stroke-miterlimit:10;}
	.st12{fill:none;stroke:#000000;stroke-miterlimit:10;}
</style>
<g>
	<path d="M36.2,36l-0.3,1.7h-31l0.9-5.3h12.5l0.7-3.8c-2.9-0.5-5.1-1.5-6.6-3.2s-1.9-3.9-1.5-6.7c0.6-3.2,2.2-5.7,4.9-7.5
		c2.7-1.8,6-2.6,9.8-2.6c3.9,0,6.8,0.9,8.9,2.6c2.1,1.8,2.8,4.3,2.2,7.5c-0.5,2.7-1.7,4.9-3.7,6.6c-2,1.7-4.4,2.8-7.4,3.3l-0.7,3.9
		h13.5c-0.6,0.3-1.1,0.8-1.5,1.5C36.6,34.5,36.3,35.2,36.2,36z M29.2,14.9c-0.8-0.8-2.3-1.2-4.4-1.2s-3.7,0.4-4.8,1.2
		c-1.1,0.8-1.8,2.1-2.1,3.7c-0.3,1.7,0,3,0.8,3.8c0.8,0.8,2.3,1.2,4.4,1.2c2.1,0,3.7-0.4,4.8-1.2c1.1-0.8,1.8-2.1,2.1-3.7
		C30.3,17,30.1,15.7,29.2,14.9z"/>
	<path d="M73,24.6l-0.2,1H41.2L42,21h33.4c-0.6,0.3-1.1,0.8-1.5,1.5C73.4,23.2,73.1,23.9,73,24.6z M43.9,31.8h18.3l0.2-1H43.9l0.7-4
		h25.2l-1.5,8.8H50l-0.2,1h18.9L68,40.7H45.4c-2,0-2.9-1-2.5-2.9L43.9,31.8z M48.8,19.7c-2,0-2.9-1-2.5-2.9l1.4-8.1h6.8l-1,5.9h20.7
		c-0.6,0.3-1.1,0.8-1.5,1.5s-0.8,1.4-0.9,2.1l-0.3,1.5H48.8z"/>
	<path d="M87.8,40.3h-6.7l1.7-9.8h-8.1l0.9-5.2h22.8l-0.9,5.2h-8L87.8,40.3z M81,23.8c-2,0-2.9-1-2.5-2.9l2.1-11.8h18.8l-2.1,11.8
		c-0.3,1.9-1.5,2.9-3.5,2.9H81z M85.6,18.5h5.5l0.7-4.1h-5.5L85.6,18.5z M91.8,31.9h6.6l4.1-23.2h8.4c-0.6,0.4-1.1,1.1-1.6,1.9
		s-0.8,1.9-1.1,3.1l-4.3,24.6c-0.3,1.6-1.2,2.4-2.8,2.4h-4.3l0.6-3.6h-6.6L91.8,31.9z"/>
	<path d="M136.5,8.7h8.5c-0.6,0.4-1.1,1.1-1.6,1.9s-0.8,1.9-1,3.1l-2,11.2c-0.1,0.6-0.3,1.1-0.6,1.4s-0.8,0.4-1.4,0.4h-5l1.1-6.3h-4
		l-0.5,3c-0.3,1.9-1.5,2.9-3.5,2.9h-12c-2,0-2.9-1-2.5-2.9l2.5-14.3h18l-1.1,6h4L136.5,8.7z M132.1,33.1h-18.3l0.9-5.3h25l-2.3,12.9
		h-6.7L132.1,33.1z M120.2,14.4L119,21h4.6l1.2-6.6H120.2z"/>
	<path d="M153.3,18.8l0.8-4.2h-6.7l0.9-5.3h20.4l-0.9,5.3H161l-0.8,4.2c-0.5,2.8-0.3,5.1,0.6,6.9c0.9,1.8,2.9,3.6,5.9,5.2l4-22.3
		h8.5c-0.6,0.4-1.1,1.1-1.6,1.9c-0.5,0.9-0.8,1.9-1.1,3.1l-4.3,24.6c-0.3,1.6-1.2,2.4-2.8,2.4h-4.3l1.7-9.6l-4.7,3.8
		c-1.2-0.4-2.6-1.2-4-2.4c-1.4-1.2-2.4-2.6-3-4.2c-1.1,1.6-2.6,3-4.5,4.2s-3.5,2.1-4.8,2.4l-3.4-3.9c3.6-1.6,6.2-3.4,7.8-5.3
		C151.8,24,152.8,21.7,153.3,18.8z"/>
	<path d="M192.2,25.7l-0.6,3.6h-7.4l0.6-3.6c0.5-2.8,1.9-5.2,4.3-7.3c2.3-2,3.7-3.7,4.2-5.1c0.4-0.9,0.3-1.7-0.1-2.3
		S192,10,191,10.1c-0.9,0.1-1.6,0.4-2.1,1c-0.5,0.6-0.9,1.6-1.2,3h-7.2c0.2-1.3,0.6-2.5,1.1-3.6c0.5-1.1,1.3-2.2,2.2-3.3
		c0.9-1,2.1-1.9,3.5-2.5c1.5-0.6,3.1-0.9,4.9-0.9c3.1,0,5.5,0.8,7,2.3c1.5,1.5,2,3.7,1.5,6.5c-0.1,0.8-0.4,1.6-0.8,2.3
		c-0.4,0.8-0.9,1.5-1.4,2.1s-1.2,1.4-2,2.2c-0.8,0.8-1.6,1.6-2.4,2.5c-0.2,0.3-0.5,0.6-0.7,0.8s-0.5,0.6-0.7,1.2
		S192.4,24.9,192.2,25.7z M182.7,39.2c-0.7-0.8-1-1.9-0.7-3.3c0.2-1.4,0.9-2.5,1.9-3.3c1-0.8,2.2-1.2,3.6-1.2c1.4,0,2.5,0.4,3.2,1.2
		s1,1.9,0.7,3.3c-0.2,1.4-0.9,2.5-1.9,3.3c-1,0.8-2.2,1.2-3.6,1.2C184.5,40.4,183.5,40,182.7,39.2z"/>
</g>
</svg>
